<svg xmlns="http://www.w3.org/2000/svg" width="14" height="14" fill="none" fill-rule="evenodd"><circle stroke="#e5322d" cx="7" cy="7" r="6"></circle><path d="M7.22 5.062c.56.005 1.02-.457 1.025-1.023a1.03 1.03 0 0 0-1.02-1.04c-.57 0-1.036.45-1.042 1.023 0 .566.46 1.034 1.036 1.04M8.293 9.13c-.1.034-.177.097-.268.13a1.53 1.53 0 0 1-.354.097c-.147.015-.253-.058-.3-.194a.97.97 0 0 1-.03-.316c.025-.22.07-.432.1-.65l.37-1.958c.03-.175.066-.355.06-.534-.005-.214-.137-.316-.36-.316h-1.8a1.64 1.64 0 0 0-.218.015c-.137.024-.203.087-.213.2-.01.092.04.185.167.228.1.034.208.044.314.058.243.034.324.117.324.355 0 .04-.005.073-.01.112L5.782 8.06l-.157.986c-.07.48.415.938.795.986.228.03.46.04.694.034.496-.005.9-.2 1.26-.544a.51.51 0 0 0 .132-.22c.04-.136-.07-.228-.213-.175" fill="#e5322d"></path></svg>