<svg xmlns="http://www.w3.org/2000/svg" width="12" height="12"><path d="M10.104 6.536c.27 0 .542.044.75.18l.1.077.69.695c.237.238.355.596.355.914 0 .272-.102.59-.267.81l-.088.103-2.37 2.384c-.237.238-.533.298-.85.298-.27 0-.542-.13-.75-.307l-.1-.09-.69-.695a1.03 1.03 0 0 1-.355-.795 1.06 1.06 0 0 1 .267-.699l.088-.096 2.37-2.384c.237-.22.533-.397.85-.397zm0 .795c-.08 0-.158.064-.217.13l-.04.05-2.37 2.384c-.138.122-.156.26-.052.397l.052.06.69.695c.06.08.178.18.276.18.08 0 .158.013.227-.023l.05-.037 2.37-2.384c.138-.14.156-.445.052-.626l-.052-.07-.69-.695c-.08-.08-.197-.06-.296-.06zM.942 0l.073.003c.074.006.152.024.22.066l.064.05 5.075 1.71a2.26 2.26 0 0 1 .917.669l.1.125 1.54 2.404c.292.458.264 1.086-.07 1.508l-.09.1L6.53 8.88c-.237.238-.592.358-.928.358-.2 0-.392-.05-.566-.142L4.91 9.02 2.52 7.45c-.294-.19-.572-.535-.717-.87l-.053-.143L.053 1.33C-.046.993-.006.656.17.397A.91.91 0 0 1 .942 0zm.543.957l3.067 3.086c.45-.23 1.002-.153 1.366.23.454.477.454 1.232 0 1.69-.474.457-1.224.457-1.68 0a1.23 1.23 0 0 1-.236-1.346l-3-3.008L2.52 6.14a1.35 1.35 0 0 0 .376.536l.078.06 2.39 1.57c.06.06.158.08.257.08a.55.55 0 0 0 .292-.069l.064-.05 2.25-2.245c.138-.122.17-.365.097-.544l-.038-.072-1.56-2.424c-.1-.15-.307-.312-.488-.408l-.104-.05L1.485.957zm3.86 3.87a.38.38 0 0 0-.553 0c-.138.16-.138.397 0 .556a.38.38 0 0 0 .553 0c.158-.16.158-.397 0-.556z" fill="#161616" fill-rule="evenodd"/></svg>