<svg xmlns="http://www.w3.org/2000/svg" width="19" height="13"><path d="M13.143 6.31c1.5 0 2.79-1.396 2.79-3.197C15.93 1.335 14.636 0 13.143 0c-1.5 0-2.796 1.366-2.796 3.128 0 1.785 1.288 3.18 2.796 3.18zm-8.028.168c1.302 0 2.428-1.22 2.428-2.792 0-1.55-1.126-2.7-2.428-2.7S2.68 2.167 2.68 3.7c0 1.556 1.126 2.777 2.436 2.777zM6.512 13c-.736-1.09.125-3.28 1.648-4.5-.773-.534-1.766-.923-3.054-.923C1.98 7.576 0 9.97 0 11.955 0 12.626.346 13 1.25 13h5.26zM17.5 13c1.11 0 1.5-.336 1.5-.977 0-1.862-2.252-4.425-5.865-4.425-3.606 0-5.865 2.563-5.865 4.425 0 .64.4.977 1.5.977H17.5z" fill="#383e45"/></svg>